<svg width="127" height="44" viewBox="0 0 127 44" fill="none" xmlns="http://www.w3.org/2000/svg">
<g filter="url(#filter0_dii_115_103112)">
<path d="M-17 9C-17 4.58172 -13.4183 1 -9 1H117C121.418 1 125 4.58172 125 9V33C125 37.4183 121.418 41 117 41H-9C-13.4183 41 -17 37.4183 -17 33V9Z" fill="#7F56D9"/>
<path d="M-16 9C-16 5.13401 -12.866 2 -9 2H117C120.866 2 124 5.13401 124 9V33C124 36.866 120.866 40 117 40H-9C-12.866 40 -16 36.866 -16 33V9Z" stroke="url(#paint0_linear_115_103112)" stroke-width="2"/>
<g clip-path="url(#clip0_115_103112)">
<path d="M7.00008 29.3333C11.6025 29.3333 15.3334 25.6023 15.3334 21C15.3334 16.3976 11.6025 12.6666 7.00008 12.6666C2.39771 12.6666 -1.33325 16.3976 -1.33325 21C-1.33325 25.6023 2.39771 29.3333 7.00008 29.3333Z" stroke="white" stroke-width="1.66667" stroke-linecap="round" stroke-linejoin="round"/>
</g>
<path d="M36.3118 26H34.343L37.9276 15.8182H40.2045L43.794 26H41.8253L39.1058 17.9062H39.0263L36.3118 26ZM36.3764 22.0078H41.7457V23.4893H36.3764V22.0078ZM45.0556 28.8636V18.3636H46.8255V19.6264H46.9299C47.0227 19.4408 47.1536 19.2436 47.3226 19.0348C47.4917 18.8227 47.7203 18.642 48.0087 18.4929C48.2971 18.3404 48.665 18.2642 49.1124 18.2642C49.7024 18.2642 50.2343 18.415 50.7083 18.7166C51.1855 19.0149 51.5634 19.4574 51.8418 20.044C52.1235 20.6274 52.2644 21.3433 52.2644 22.1918C52.2644 23.0303 52.1268 23.7429 51.8517 24.3295C51.5766 24.9162 51.2021 25.3636 50.7282 25.6719C50.2542 25.9801 49.7173 26.1342 49.1174 26.1342C48.6799 26.1342 48.3169 26.0613 48.0286 25.9155C47.7402 25.7696 47.5082 25.594 47.3326 25.3885C47.1602 25.1797 47.026 24.9825 46.9299 24.7969H46.8553V28.8636H45.0556ZM46.8205 22.1818C46.8205 22.6757 46.8901 23.1082 47.0293 23.4794C47.1718 23.8506 47.3757 24.1406 47.6408 24.3494C47.9093 24.5549 48.2341 24.6577 48.6152 24.6577C49.013 24.6577 49.3461 24.5516 49.6145 24.3395C49.883 24.1241 50.0852 23.8307 50.2211 23.4595C50.3603 23.085 50.4299 22.6591 50.4299 22.1818C50.4299 21.7079 50.3619 21.2869 50.226 20.919C50.0901 20.5511 49.888 20.2628 49.6195 20.054C49.351 19.8452 49.0163 19.7408 48.6152 19.7408C48.2308 19.7408 47.9043 19.8419 47.6358 20.044C47.3674 20.2462 47.1635 20.5296 47.0243 20.8942C46.8884 21.2588 46.8205 21.688 46.8205 22.1818ZM53.8056 28.8636V18.3636H55.5755V19.6264H55.6799C55.7727 19.4408 55.9036 19.2436 56.0726 19.0348C56.2417 18.8227 56.4703 18.642 56.7587 18.4929C57.0471 18.3404 57.415 18.2642 57.8624 18.2642C58.4524 18.2642 58.9843 18.415 59.4583 18.7166C59.9355 19.0149 60.3134 19.4574 60.5918 20.044C60.8735 20.6274 61.0144 21.3433 61.0144 22.1918C61.0144 23.0303 60.8768 23.7429 60.6017 24.3295C60.3266 24.9162 59.9521 25.3636 59.4782 25.6719C59.0042 25.9801 58.4673 26.1342 57.8674 26.1342C57.4299 26.1342 57.0669 26.0613 56.7786 25.9155C56.4902 25.7696 56.2582 25.594 56.0826 25.3885C55.9102 25.1797 55.776 24.9825 55.6799 24.7969H55.6053V28.8636H53.8056ZM55.5705 22.1818C55.5705 22.6757 55.6401 23.1082 55.7793 23.4794C55.9218 23.8506 56.1257 24.1406 56.3908 24.3494C56.6593 24.5549 56.9841 24.6577 57.3652 24.6577C57.763 24.6577 58.0961 24.5516 58.3645 24.3395C58.633 24.1241 58.8352 23.8307 58.9711 23.4595C59.1103 23.085 59.1799 22.6591 59.1799 22.1818C59.1799 21.7079 59.1119 21.2869 58.976 20.919C58.8401 20.5511 58.638 20.2628 58.3695 20.054C58.101 19.8452 57.7663 19.7408 57.3652 19.7408C56.9808 19.7408 56.6543 19.8419 56.3858 20.044C56.1174 20.2462 55.9135 20.5296 55.7743 20.8942C55.6384 21.2588 55.5705 21.688 55.5705 22.1818ZM64.3553 15.8182V26H62.5556V15.8182H64.3553ZM67.3246 28.8636C67.0793 28.8636 66.8523 28.8438 66.6435 28.804C66.438 28.7675 66.2739 28.7244 66.1513 28.6747L66.5689 27.2727C66.8307 27.349 67.0644 27.3854 67.2699 27.3821C67.4754 27.3788 67.656 27.3142 67.8118 27.1882C67.9709 27.0656 68.1051 26.8601 68.2145 26.5717L68.3686 26.1591L65.5994 18.3636H67.5085L69.2685 24.1307H69.348L71.1129 18.3636H73.027L69.9695 26.9247C69.8269 27.3291 69.638 27.6754 69.4027 27.9638C69.1674 28.2554 68.879 28.4775 68.5376 28.63C68.1996 28.7857 67.7952 28.8636 67.3246 28.8636Z" fill="white"/>
<g clip-path="url(#clip1_115_103112)">
<path d="M117 29.3333C121.602 29.3333 125.333 25.6023 125.333 21C125.333 16.3976 121.602 12.6666 117 12.6666C112.398 12.6666 108.667 16.3976 108.667 21C108.667 25.6023 112.398 29.3333 117 29.3333Z" stroke="white" stroke-width="1.66667" stroke-linecap="round" stroke-linejoin="round"/>
</g>
</g>
<defs>
<filter id="filter0_dii_115_103112" x="-19" y="0" width="146" height="44" filterUnits="userSpaceOnUse" color-interpolation-filters="sRGB">
<feFlood flood-opacity="0" result="BackgroundImageFix"/>
<feColorMatrix in="SourceAlpha" type="matrix" values="0 0 0 0 0 0 0 0 0 0 0 0 0 0 0 0 0 0 127 0" result="hardAlpha"/>
<feOffset dy="1"/>
<feGaussianBlur stdDeviation="1"/>
<feComposite in2="hardAlpha" operator="out"/>
<feColorMatrix type="matrix" values="0 0 0 0 0.0627451 0 0 0 0 0.0941176 0 0 0 0 0.156863 0 0 0 0.05 0"/>
<feBlend mode="normal" in2="BackgroundImageFix" result="effect1_dropShadow_115_103112"/>
<feBlend mode="normal" in="SourceGraphic" in2="effect1_dropShadow_115_103112" result="shape"/>
<feColorMatrix in="SourceAlpha" type="matrix" values="0 0 0 0 0 0 0 0 0 0 0 0 0 0 0 0 0 0 127 0" result="hardAlpha"/>
<feOffset dy="-2"/>
<feComposite in2="hardAlpha" operator="arithmetic" k2="-1" k3="1"/>
<feColorMatrix type="matrix" values="0 0 0 0 0.0627451 0 0 0 0 0.0941176 0 0 0 0 0.156863 0 0 0 0.05 0"/>
<feBlend mode="normal" in2="shape" result="effect2_innerShadow_115_103112"/>
<feColorMatrix in="SourceAlpha" type="matrix" values="0 0 0 0 0 0 0 0 0 0 0 0 0 0 0 0 0 0 127 0" result="hardAlpha"/>
<feMorphology radius="1" operator="erode" in="SourceAlpha" result="effect3_innerShadow_115_103112"/>
<feOffset/>
<feComposite in2="hardAlpha" operator="arithmetic" k2="-1" k3="1"/>
<feColorMatrix type="matrix" values="0 0 0 0 0.0627451 0 0 0 0 0.0941176 0 0 0 0 0.156863 0 0 0 0.18 0"/>
<feBlend mode="normal" in2="effect2_innerShadow_115_103112" result="effect3_innerShadow_115_103112"/>
</filter>
<linearGradient id="paint0_linear_115_103112" x1="54" y1="1" x2="54" y2="41" gradientUnits="userSpaceOnUse">
<stop stop-color="white" stop-opacity="0.12"/>
<stop offset="1" stop-color="white" stop-opacity="0"/>
</linearGradient>
<clipPath id="clip0_115_103112">
<rect width="20" height="20" fill="white" transform="translate(-3 11)"/>
</clipPath>
<clipPath id="clip1_115_103112">
<rect width="20" height="20" fill="white" transform="translate(107 11)"/>
</clipPath>
</defs>
</svg>
