<svg width="146" height="44" viewBox="0 0 146 44" fill="none" xmlns="http://www.w3.org/2000/svg">
<g filter="url(#filter0_dii_115_104816)">
<path d="M2 9C2 4.58172 5.58172 1 10 1H136C140.418 1 144 4.58172 144 9V33C144 37.4183 140.418 41 136 41H10C5.58172 41 2 37.4183 2 33V9Z" fill="#7F56D9"/>
<path d="M3 9C3 5.13401 6.13401 2 10 2H136C139.866 2 143 5.13401 143 9V33C143 36.866 139.866 40 136 40H10C6.13401 40 3 36.866 3 33V9Z" stroke="url(#paint0_linear_115_104816)" stroke-width="2"/>
<g clip-path="url(#clip0_115_104816)">
<path d="M26.0001 29.3333C30.6025 29.3333 34.3334 25.6023 34.3334 21C34.3334 16.3976 30.6025 12.6666 26.0001 12.6666C21.3977 12.6666 17.6667 16.3976 17.6667 21C17.6667 25.6023 21.3977 29.3333 26.0001 29.3333Z" stroke="white" stroke-width="1.66667" stroke-linecap="round" stroke-linejoin="round"/>
</g>
<path d="M55.3118 26H53.343L56.9276 15.8182H59.2045L62.794 26H60.8253L58.1058 17.9062H58.0263L55.3118 26ZM55.3764 22.0078H60.7457V23.4893H55.3764V22.0078ZM64.0556 28.8636V18.3636H65.8255V19.6264H65.9299C66.0227 19.4408 66.1536 19.2436 66.3226 19.0348C66.4917 18.8227 66.7203 18.642 67.0087 18.4929C67.2971 18.3404 67.665 18.2642 68.1124 18.2642C68.7024 18.2642 69.2343 18.415 69.7083 18.7166C70.1855 19.0149 70.5634 19.4574 70.8418 20.044C71.1235 20.6274 71.2644 21.3433 71.2644 22.1918C71.2644 23.0303 71.1268 23.7429 70.8517 24.3295C70.5766 24.9162 70.2021 25.3636 69.7282 25.6719C69.2542 25.9801 68.7173 26.1342 68.1174 26.1342C67.6799 26.1342 67.3169 26.0613 67.0286 25.9155C66.7402 25.7696 66.5082 25.594 66.3326 25.3885C66.1602 25.1797 66.026 24.9825 65.9299 24.7969H65.8553V28.8636H64.0556ZM65.8205 22.1818C65.8205 22.6757 65.8901 23.1082 66.0293 23.4794C66.1718 23.8506 66.3757 24.1406 66.6408 24.3494C66.9093 24.5549 67.2341 24.6577 67.6152 24.6577C68.013 24.6577 68.3461 24.5516 68.6145 24.3395C68.883 24.1241 69.0852 23.8307 69.2211 23.4595C69.3603 23.085 69.4299 22.6591 69.4299 22.1818C69.4299 21.7079 69.3619 21.2869 69.226 20.919C69.0901 20.5511 68.888 20.2628 68.6195 20.054C68.351 19.8452 68.0163 19.7408 67.6152 19.7408C67.2308 19.7408 66.9043 19.8419 66.6358 20.044C66.3674 20.2462 66.1635 20.5296 66.0243 20.8942C65.8884 21.2588 65.8205 21.688 65.8205 22.1818ZM72.8056 28.8636V18.3636H74.5755V19.6264H74.6799C74.7727 19.4408 74.9036 19.2436 75.0726 19.0348C75.2417 18.8227 75.4703 18.642 75.7587 18.4929C76.0471 18.3404 76.415 18.2642 76.8624 18.2642C77.4524 18.2642 77.9843 18.415 78.4583 18.7166C78.9355 19.0149 79.3134 19.4574 79.5918 20.044C79.8735 20.6274 80.0144 21.3433 80.0144 22.1918C80.0144 23.0303 79.8768 23.7429 79.6017 24.3295C79.3266 24.9162 78.9521 25.3636 78.4782 25.6719C78.0042 25.9801 77.4673 26.1342 76.8674 26.1342C76.4299 26.1342 76.0669 26.0613 75.7786 25.9155C75.4902 25.7696 75.2582 25.594 75.0826 25.3885C74.9102 25.1797 74.776 24.9825 74.6799 24.7969H74.6053V28.8636H72.8056ZM74.5705 22.1818C74.5705 22.6757 74.6401 23.1082 74.7793 23.4794C74.9218 23.8506 75.1257 24.1406 75.3908 24.3494C75.6593 24.5549 75.9841 24.6577 76.3652 24.6577C76.763 24.6577 77.0961 24.5516 77.3645 24.3395C77.633 24.1241 77.8352 23.8307 77.9711 23.4595C78.1103 23.085 78.1799 22.6591 78.1799 22.1818C78.1799 21.7079 78.1119 21.2869 77.976 20.919C77.8401 20.5511 77.638 20.2628 77.3695 20.054C77.101 19.8452 76.7663 19.7408 76.3652 19.7408C75.9808 19.7408 75.6543 19.8419 75.3858 20.044C75.1174 20.2462 74.9135 20.5296 74.7743 20.8942C74.6384 21.2588 74.5705 21.688 74.5705 22.1818ZM83.3553 15.8182V26H81.5556V15.8182H83.3553ZM86.3246 28.8636C86.0793 28.8636 85.8523 28.8438 85.6435 28.804C85.438 28.7675 85.2739 28.7244 85.1513 28.6747L85.5689 27.2727C85.8307 27.349 86.0644 27.3854 86.2699 27.3821C86.4754 27.3788 86.656 27.3142 86.8118 27.1882C86.9709 27.0656 87.1051 26.8601 87.2145 26.5717L87.3686 26.1591L84.5994 18.3636H86.5085L88.2685 24.1307H88.348L90.1129 18.3636H92.027L88.9695 26.9247C88.8269 27.3291 88.638 27.6754 88.4027 27.9638C88.1674 28.2554 87.879 28.4775 87.5376 28.63C87.1996 28.7857 86.7952 28.8636 86.3246 28.8636Z" fill="white"/>
<g clip-path="url(#clip1_115_104816)">
<path d="M136 29.3333C140.602 29.3333 144.333 25.6023 144.333 21C144.333 16.3976 140.602 12.6666 136 12.6666C131.398 12.6666 127.667 16.3976 127.667 21C127.667 25.6023 131.398 29.3333 136 29.3333Z" stroke="white" stroke-width="1.66667" stroke-linecap="round" stroke-linejoin="round"/>
</g>
</g>
<defs>
<filter id="filter0_dii_115_104816" x="0" y="0" width="146" height="44" filterUnits="userSpaceOnUse" color-interpolation-filters="sRGB">
<feFlood flood-opacity="0" result="BackgroundImageFix"/>
<feColorMatrix in="SourceAlpha" type="matrix" values="0 0 0 0 0 0 0 0 0 0 0 0 0 0 0 0 0 0 127 0" result="hardAlpha"/>
<feOffset dy="1"/>
<feGaussianBlur stdDeviation="1"/>
<feComposite in2="hardAlpha" operator="out"/>
<feColorMatrix type="matrix" values="0 0 0 0 0.0627451 0 0 0 0 0.0941176 0 0 0 0 0.156863 0 0 0 0.05 0"/>
<feBlend mode="normal" in2="BackgroundImageFix" result="effect1_dropShadow_115_104816"/>
<feBlend mode="normal" in="SourceGraphic" in2="effect1_dropShadow_115_104816" result="shape"/>
<feColorMatrix in="SourceAlpha" type="matrix" values="0 0 0 0 0 0 0 0 0 0 0 0 0 0 0 0 0 0 127 0" result="hardAlpha"/>
<feOffset dy="-2"/>
<feComposite in2="hardAlpha" operator="arithmetic" k2="-1" k3="1"/>
<feColorMatrix type="matrix" values="0 0 0 0 0.0627451 0 0 0 0 0.0941176 0 0 0 0 0.156863 0 0 0 0.05 0"/>
<feBlend mode="normal" in2="shape" result="effect2_innerShadow_115_104816"/>
<feColorMatrix in="SourceAlpha" type="matrix" values="0 0 0 0 0 0 0 0 0 0 0 0 0 0 0 0 0 0 127 0" result="hardAlpha"/>
<feMorphology radius="1" operator="erode" in="SourceAlpha" result="effect3_innerShadow_115_104816"/>
<feOffset/>
<feComposite in2="hardAlpha" operator="arithmetic" k2="-1" k3="1"/>
<feColorMatrix type="matrix" values="0 0 0 0 0.0627451 0 0 0 0 0.0941176 0 0 0 0 0.156863 0 0 0 0.18 0"/>
<feBlend mode="normal" in2="effect2_innerShadow_115_104816" result="effect3_innerShadow_115_104816"/>
</filter>
<linearGradient id="paint0_linear_115_104816" x1="73" y1="1" x2="73" y2="41" gradientUnits="userSpaceOnUse">
<stop stop-color="white" stop-opacity="0.12"/>
<stop offset="1" stop-color="white" stop-opacity="0"/>
</linearGradient>
<clipPath id="clip0_115_104816">
<rect width="20" height="20" fill="white" transform="translate(16 11)"/>
</clipPath>
<clipPath id="clip1_115_104816">
<rect width="20" height="20" fill="white" transform="translate(126 11)"/>
</clipPath>
</defs>
</svg>
